<?xml version="1.0" encoding="UTF-8"?>
<svg version="1.1" xmlns="http://www.w3.org/2000/svg" width="500" height="500">
<path d="M0 0 C1.79831963 -0.00067541 3.59663917 -0.0016474 5.3949585 -0.00289917 C9.13994222 -0.00436348 12.88490191 -0.00226167 16.62988281 0.00244141 C21.40971909 0.00815452 26.18949939 0.00484162 30.96933365 -0.00113106 C34.67381202 -0.00475693 38.37827726 -0.00358907 42.08275604 -0.00100327 C43.8448665 -0.00034046 45.60697819 -0.0011396 47.36908722 -0.00348282 C49.83495717 -0.00604468 52.30073817 -0.00212015 54.76660156 0.00341797 C55.48058105 0.00139374 56.19456055 -0.00063049 56.93017578 -0.00271606 C64.95921613 0.03040606 71.87257496 0.58407985 79.171875 4.1953125 C80.29722656 4.74316406 81.42257812 5.29101562 82.58203125 5.85546875 C83.41605469 6.27699219 84.25007812 6.69851562 85.109375 7.1328125 C85.109375 7.7928125 85.109375 8.4528125 85.109375 9.1328125 C85.69589844 9.39449219 86.28242188 9.65617188 86.88671875 9.92578125 C91.94042661 12.67023771 96.87882183 17.83524873 99.109375 23.1328125 C98.921875 25.8828125 98.921875 25.8828125 98.109375 28.1328125 C94.45728918 29.95885541 91.04954313 30.21020222 87.109375 29.1328125 C84.54678607 26.81695933 82.48520971 24.30645986 80.31640625 21.62109375 C76.59584084 17.42640319 72.3765324 15.88853163 67.109375 14.1328125 C64.20603539 14.0206828 61.32609572 13.96510661 58.42211914 13.95581055 C57.53387451 13.94923935 56.64562988 13.94266815 55.73046875 13.93589783 C52.78515537 13.91615991 49.83989316 13.90449707 46.89453125 13.89453125 C45.88623198 13.89045572 44.8779327 13.8863802 43.8390789 13.88218117 C38.49550456 13.86131182 33.1519559 13.84701752 27.80834961 13.83764648 C22.31091477 13.82661965 16.81388889 13.79226533 11.31659794 13.75247478 C7.07239578 13.72621015 2.82828925 13.71794561 -1.41598701 13.71436501 C-3.44079899 13.70951933 -5.46560728 13.69796358 -7.49033928 13.67932701 C-21.67072877 13.55698618 -35.00297076 13.69259611 -45.890625 24.1328125 C-46.220625 24.7928125 -46.550625 25.4528125 -46.890625 26.1328125 C-47.550625 26.1328125 -48.210625 26.1328125 -48.890625 26.1328125 C-49.15875 27.0196875 -49.426875 27.9065625 -49.703125 28.8203125 C-50.890625 32.1328125 -50.890625 32.1328125 -52.390625 34.4453125 C-55.99463124 40.90249035 -57.09150557 49.1539792 -55.35546875 56.3515625 C-54.63129619 58.66258312 -53.80012727 60.88858612 -52.890625 63.1328125 C-52.62378906 63.82632813 -52.35695312 64.51984375 -52.08203125 65.234375 C-49.11446964 72.06636128 -43.9030566 77.01467512 -37.078125 80.0078125 C-29.75982693 82.59074123 -22.65359198 83.54592595 -15.203125 80.6953125 C-9.01514112 77.56793216 -4.33044872 72.26286406 -1.453125 66.0078125 C-0.81172307 62.72953595 -0.35370368 59.44051732 0.109375 56.1328125 C-0.5611792 56.15375977 -1.2317334 56.17470703 -1.92260742 56.19628906 C-4.9742928 56.27967277 -8.02573817 56.33154266 -11.078125 56.3828125 C-12.66077148 56.43308594 -12.66077148 56.43308594 -14.27539062 56.484375 C-22.09546135 56.58305097 -22.09546135 56.58305097 -26.10546875 54.3125 C-27.890625 52.1328125 -27.890625 52.1328125 -28.265625 49.0078125 C-27.890625 46.1328125 -27.890625 46.1328125 -26.890625 44.1328125 C-22.26014566 42.12017255 -17.98588204 41.88259285 -13.015625 42.0078125 C-11.98308594 42.02134766 -11.98308594 42.02134766 -10.9296875 42.03515625 C-9.24984662 42.05848737 -7.57018754 42.09434924 -5.890625 42.1328125 C-10.16626582 37.3709526 -12.98327419 36.17306706 -19.1640625 35.2734375 C-22.9286626 35.07927474 -25.39692218 35.74988847 -28.890625 37.1328125 C-29.880625 37.4628125 -30.870625 37.7928125 -31.890625 38.1328125 C-34.53184727 42.82831875 -35.47584897 48.86059247 -34.52734375 54.1640625 C-33.27481794 57.79100839 -31.97840245 59.08385969 -28.640625 60.9453125 C-26.13329857 61.7392992 -23.61161794 62.48925709 -21.078125 63.1953125 C-17.890625 64.1328125 -17.890625 64.1328125 -15.890625 66.1328125 C-15.390625 69.0078125 -15.390625 69.0078125 -15.890625 72.1328125 C-19.16501428 75.32534205 -21.05957209 76.11896162 -25.640625 76.1953125 C-31.99013016 74.9765975 -38.52329325 72.12252956 -42.828125 67.1953125 C-47.90757519 59.65309859 -49.7163023 53.21846493 -48.328125 44.1953125 C-46.26287062 35.45874298 -41.95768226 29.13855725 -34.4296875 24.2890625 C-26.90444197 20.86218146 -19.52451442 20.82549441 -11.39453125 20.83203125 C-10.20641342 20.82774612 -9.01829559 20.823461 -7.79417419 20.81904602 C-5.29044225 20.81332263 -2.78669369 20.81278771 -0.28295898 20.81713867 C3.53105218 20.82029939 7.34428762 20.79681049 11.15820312 20.77148438 C13.59895736 20.76921115 16.03971367 20.76850799 18.48046875 20.76953125 C20.17773354 20.75571663 20.17773354 20.75571663 21.9092865 20.74162292 C30.35492338 20.79057522 38.1549875 21.97310564 45.109375 27.1328125 C45.109375 27.7928125 45.109375 28.4528125 45.109375 29.1328125 C45.769375 29.1328125 46.429375 29.1328125 47.109375 29.1328125 C51.00059432 35.03240308 52.70000308 40.15336349 51.85546875 47.2734375 C50.68655375 52.79155876 48.71098828 57.28404702 43.9765625 60.6484375 C37.85181987 64.14280477 32.94436086 64.95950784 26.109375 63.1328125 C22.984375 61.6953125 22.984375 61.6953125 21.109375 60.1328125 C21.109375 59.4728125 21.109375 58.8128125 21.109375 58.1328125 C20.449375 58.1328125 19.789375 58.1328125 19.109375 58.1328125 C19.109375 57.4728125 19.109375 56.8128125 19.109375 56.1328125 C17.459375 56.1328125 15.809375 56.1328125 14.109375 56.1328125 C13.97982422 57.36644531 13.97982422 57.36644531 13.84765625 58.625 C12.54075287 69.00828743 9.45851192 79.15028623 1.109375 86.1328125 C-1.07421875 86.81640625 -1.07421875 86.81640625 -2.890625 87.1328125 C-2.890625 87.7928125 -2.890625 88.4528125 -2.890625 89.1328125 C-4.73799191 90.12474843 -6.59390283 91.10077947 -8.453125 92.0703125 C-9.48566406 92.61558594 -10.51820313 93.16085937 -11.58203125 93.72265625 C-17.53173864 96.25848195 -23.62552787 96.27705144 -30.01171875 96.23046875 C-30.75647964 96.2290538 -31.50124054 96.22763885 -32.26856995 96.22618103 C-34.62179773 96.22063239 -36.9749265 96.20808983 -39.328125 96.1953125 C-40.93424341 96.19029085 -42.54036332 96.18572911 -44.14648438 96.18164062 C-48.06123543 96.17067985 -51.97591349 96.15345134 -55.890625 96.1328125 C-55.96596281 100.30961795 -56.01977347 104.48604161 -56.05541992 108.66333008 C-56.07031238 110.07811387 -56.09063336 111.49285317 -56.11694336 112.9074707 C-56.33335852 124.8612256 -55.94061477 136.9984522 -48.890625 147.1328125 C-47.90832002 148.1501998 -46.91592903 149.15877367 -45.890625 150.1328125 C-45.890625 150.7928125 -45.890625 151.4528125 -45.890625 152.1328125 C-45.230625 152.1328125 -44.570625 152.1328125 -43.890625 152.1328125 C-43.890625 152.7928125 -43.890625 153.4528125 -43.890625 154.1328125 C-43.15595001 154.41971451 -42.42127502 154.70661652 -41.66433716 155.00221252 C-38.890625 156.1328125 -38.890625 156.1328125 -36.80221558 157.18321228 C-26.79507513 161.72249043 -15.70776741 160.72987783 -4.9609375 160.69921875 C-2.72093448 160.70446195 -0.48093367 160.71074097 1.75906372 160.71800232 C6.44088166 160.72837682 11.12239511 160.72388799 15.80419922 160.70922852 C21.77454163 160.69205542 27.74392025 160.71553441 33.7141552 160.75071812 C38.33674375 160.77278444 42.95910503 160.77122812 47.58172989 160.7629528 C49.78153667 160.76213816 51.98136097 160.76890748 54.18111801 160.78372383 C66.25733433 160.85259953 76.13991749 160.65849843 87.109375 155.1328125 C88.099375 154.8028125 89.089375 154.4728125 90.109375 154.1328125 C90.109375 153.4728125 90.109375 152.8128125 90.109375 152.1328125 C90.769375 152.1328125 91.429375 152.1328125 92.109375 152.1328125 C92.38910156 151.54886719 92.66882813 150.96492187 92.95703125 150.36328125 C94.36770533 147.63279006 96.06113226 145.15641551 97.79296875 142.62109375 C102.87042221 133.02365204 102.649158 123.64748708 102.796875 113.0703125 C102.83010008 111.42510386 102.86459441 109.77992033 102.90039062 108.13476562 C102.98469993 104.13425433 103.05178632 100.13379401 103.109375 96.1328125 C101.73652344 96.15021484 101.73652344 96.15021484 100.3359375 96.16796875 C98.55316406 96.18150391 98.55316406 96.18150391 96.734375 96.1953125 C95.55101562 96.20691406 94.36765625 96.21851563 93.1484375 96.23046875 C90.109375 96.1328125 90.109375 96.1328125 88.109375 95.1328125 C88.109375 94.1428125 88.109375 93.1528125 88.109375 92.1328125 C89.70969637 91.29211835 91.31478671 90.46049745 92.921875 89.6328125 C93.81519531 89.16875 94.70851563 88.7046875 95.62890625 88.2265625 C98.109375 87.1328125 98.109375 87.1328125 101.109375 87.1328125 C101.109375 86.4728125 101.109375 85.8128125 101.109375 85.1328125 C104.13777649 83.37952743 106.30811867 82.88188057 109.796875 82.9453125 C110.58449219 82.95175781 111.37210938 82.95820313 112.18359375 82.96484375 C114.109375 83.1328125 114.109375 83.1328125 115.109375 84.1328125 C115.22357671 85.70056699 115.2689595 87.27340289 115.28637695 88.84521484 C115.30562981 90.35346329 115.30562981 90.35346329 115.32527161 91.8921814 C115.33265854 92.98994904 115.34004547 94.08771667 115.34765625 95.21875 C115.355728 96.34544098 115.36379974 97.47213196 115.37211609 98.63296509 C115.3859847 101.02889456 115.39669435 103.42484402 115.40454102 105.82080078 C115.42163964 109.45775021 115.46548796 113.09376361 115.50976562 116.73046875 C115.51990226 119.05988915 115.52841531 121.38931729 115.53515625 123.71875 C115.55266434 124.79627533 115.57017242 125.87380066 115.58821106 126.98397827 C115.55933295 137.2203484 112.47586862 145.50809061 107.109375 154.1328125 C106.449375 154.1328125 105.789375 154.1328125 105.109375 154.1328125 C104.8825 154.6896875 104.655625 155.2465625 104.421875 155.8203125 C102.73387464 158.79440838 100.64260983 160.85290115 98.109375 163.1328125 C97.449375 163.1328125 96.789375 163.1328125 96.109375 163.1328125 C96.109375 163.7928125 96.109375 164.4528125 96.109375 165.1328125 C84.70303601 171.58693314 75.55852798 174.28484353 62.46142578 174.27807617 C61.51901031 174.28143478 60.57659485 174.2847934 59.60562134 174.28825378 C56.50529647 174.29771484 53.40502588 174.29970438 50.3046875 174.30078125 C48.13906838 174.30399694 45.97344948 174.30736124 43.80783081 174.31086731 C39.27373755 174.31684627 34.73966333 174.31870845 30.20556641 174.31811523 C24.40989783 174.31801362 18.61435178 174.33167035 12.81871223 174.34888744 C8.34731491 174.36003196 3.87594699 174.3620337 -0.5954628 174.36150551 C-2.73158313 174.36268175 -4.86770431 174.36708346 -7.00381088 174.37483788 C-9.99725571 174.3846883 -12.99043721 174.38173991 -15.98388672 174.37573242 C-16.8569043 174.38135193 -17.72992188 174.38697144 -18.62939453 174.39276123 C-33.48893482 174.31738032 -45.70807478 169.11609659 -56.390625 158.8828125 C-58.890625 156.1328125 -58.890625 156.1328125 -58.890625 154.1328125 C-59.550625 154.1328125 -60.210625 154.1328125 -60.890625 154.1328125 C-61.85407944 152.26043879 -62.81115602 150.3847826 -63.765625 148.5078125 C-64.29929688 147.46367187 -64.83296875 146.41953125 -65.3828125 145.34375 C-68.79454713 138.07834619 -69.17277953 132.14335252 -69.12109375 124.20703125 C-69.12063553 123.06369827 -69.12017731 121.9203653 -69.1197052 120.74238586 C-69.11669162 118.33435015 -69.10883218 115.92631624 -69.09643555 113.51831055 C-69.07810451 109.81617403 -69.07592649 106.11428668 -69.07617188 102.41210938 C-69.07125926 100.07291449 -69.06543207 97.7337213 -69.05859375 95.39453125 C-69.05748093 94.28107834 -69.0563681 93.16762543 -69.05522156 92.02043152 C-69.04565178 90.48797539 -69.04565178 90.48797539 -69.03588867 88.92456055 C-69.03207687 88.02110397 -69.02826508 87.1176474 -69.02433777 86.18681335 C-68.890625 84.1328125 -68.890625 84.1328125 -67.890625 83.1328125 C-66.04170554 82.89917369 -64.18574469 82.71977615 -62.328125 82.5703125 C-61.31621094 82.48652344 -60.30429688 82.40273437 -59.26171875 82.31640625 C-58.47925781 82.25582031 -57.69679687 82.19523437 -56.890625 82.1328125 C-57.550625 80.8128125 -58.210625 79.4928125 -58.890625 78.1328125 C-59.550625 78.1328125 -60.210625 78.1328125 -60.890625 78.1328125 C-61.858032 76.45049781 -62.81409946 74.76166053 -63.765625 73.0703125 C-64.29929688 72.13058594 -64.83296875 71.19085938 -65.3828125 70.22265625 C-70.45615907 59.82623881 -71.04133979 45.08246452 -67.328125 34.0703125 C-60.96107013 19.81704582 -51.88412556 10.03627278 -37.890625 3.1328125 C-26.05703266 -1.2695618 -12.47475066 -0.01667743 0 0 Z M6.109375 35.1328125 C7.429375 37.7728125 8.749375 40.4128125 10.109375 43.1328125 C12.19263631 43.15990694 14.27599941 43.17925123 16.359375 43.1953125 C18.09960938 43.21271484 18.09960938 43.21271484 19.875 43.23046875 C22.51914628 43.15063342 24.60763591 42.91925028 27.109375 42.1328125 C27.109375 42.7928125 27.109375 43.4528125 27.109375 44.1328125 C27.769375 44.1328125 28.429375 44.1328125 29.109375 44.1328125 C29.233125 45.3084375 29.233125 45.3084375 29.359375 46.5078125 C29.83743839 49.28030354 29.83743839 49.28030354 32.171875 50.4453125 C32.81125 50.6721875 33.450625 50.8990625 34.109375 51.1328125 C37.02250216 49.44131931 37.98532342 48.51323736 39.046875 45.2578125 C39.12114839 41.54414285 38.31144109 40.06890062 36.109375 37.1328125 C33.00562447 34.02906197 30.02701848 34.1667993 25.734375 34.0078125 C19.1849135 34.08367499 12.63996935 34.65662333 6.109375 35.1328125 Z " fill="#D3CBBD" transform="translate(226.890625,162.8671875)"/>
<path d="M0 0 C5.74393308 3.69320656 10.51959516 8.07184891 12.36328125 14.83203125 C13.36660311 22.7521932 11.13966219 28.02998092 6.5234375 34.3515625 C-5.10301915 47.70201453 -25.10298027 50.92593565 -41.58300781 54.20898438 C-52.19736479 56.37966252 -59.47107628 59.86136085 -67.63671875 66.83203125 C-68.29671875 66.83203125 -68.95671875 66.83203125 -69.63671875 66.83203125 C-69.63671875 67.82203125 -69.63671875 68.81203125 -69.63671875 69.83203125 C-70.29671875 69.83203125 -70.95671875 69.83203125 -71.63671875 69.83203125 C-71.90484375 70.65703125 -72.17296875 71.48203125 -72.44921875 72.33203125 C-73.290222 74.81077766 -74.17734363 77.21443894 -75.13671875 79.64453125 C-76.24192279 82.54016584 -77.01711736 85.35848445 -77.63671875 88.39453125 C-79.5879243 97.38236782 -83.25751318 103.11988873 -90.63671875 108.83203125 C-93.42578125 109.58984375 -93.42578125 109.58984375 -95.63671875 109.83203125 C-95.63671875 110.49203125 -95.63671875 111.15203125 -95.63671875 111.83203125 C-105.87900575 116.98769932 -117.70005551 117.46975541 -128.8359375 115.171875 C-136.02786284 112.62771764 -140.8183241 107.99955741 -144.57421875 101.45703125 C-146.431543 95.12027792 -146.46287121 89.03120378 -143.87890625 82.87890625 C-137.85007493 72.94460558 -128.52674865 67.65337563 -117.63671875 64.83203125 C-116.71572388 64.57099609 -116.71572388 64.57099609 -115.77612305 64.3046875 C-113.47703616 63.79675275 -111.39212299 63.68965572 -109.0390625 63.65625 C-89.02925365 63.18113628 -77.04576003 57.91186772 -62.63671875 43.83203125 C-60.87973196 41.88663939 -59.27063757 39.88610063 -57.63671875 37.83203125 C-55.97005208 36.16536458 -54.30338542 34.49869792 -52.63671875 32.83203125 C-52.07984375 32.06890625 -51.52296875 31.30578125 -50.94921875 30.51953125 C-50.51609375 29.96265625 -50.08296875 29.40578125 -49.63671875 28.83203125 C-48.97671875 28.83203125 -48.31671875 28.83203125 -47.63671875 28.83203125 C-47.30671875 27.51203125 -46.97671875 26.19203125 -46.63671875 24.83203125 C-45.97671875 24.83203125 -45.31671875 24.83203125 -44.63671875 24.83203125 C-44.37375 24.26742187 -44.11078125 23.7028125 -43.83984375 23.12109375 C-39.9199925 15.66319494 -34.28205358 10.18047609 -27.51171875 5.33203125 C-26.92616211 4.91099121 -26.34060547 4.48995117 -25.73730469 4.05615234 C-18.24796258 -1.09778083 -8.70345355 -3.85530757 0 0 Z M-26.63671875 21.39453125 C-27.22066406 21.98427734 -27.80460937 22.57402344 -28.40625 23.18164062 C-31.56245152 26.00436299 -31.56245152 26.00436299 -32.63671875 29.83203125 C-33.29671875 29.83203125 -33.95671875 29.83203125 -34.63671875 29.83203125 C-36.44912622 31.84811292 -36.44912622 31.84811292 -38.26171875 34.33203125 C-38.89335937 35.16734375 -39.525 36.00265625 -40.17578125 36.86328125 C-40.65789062 37.51296875 -41.14 38.16265625 -41.63671875 38.83203125 C-41.30671875 39.49203125 -40.97671875 40.15203125 -40.63671875 40.83203125 C-29.44629285 38.50354606 -19.11534731 35.40785158 -8.63671875 30.83203125 C-8.63671875 30.17203125 -8.63671875 29.51203125 -8.63671875 28.83203125 C-7.87359375 28.60515625 -7.11046875 28.37828125 -6.32421875 28.14453125 C-2.94783121 26.4955978 -2.02806602 25.31039943 -0.63671875 21.83203125 C-0.46508205 18.19963312 -0.46508205 18.19963312 -1.63671875 14.83203125 C-4.0770035 12.73067494 -5.78765675 11.96971698 -8.94921875 11.45703125 C-16.76625674 12.54778074 -21.37501188 15.82006558 -26.63671875 21.39453125 Z M-126.63671875 81.83203125 C-126.63671875 82.49203125 -126.63671875 83.15203125 -126.63671875 83.83203125 C-127.25546875 84.07953125 -127.87421875 84.32703125 -128.51171875 84.58203125 C-131.09947867 86.10424297 -131.69264533 86.999811 -132.63671875 89.83203125 C-133.102472 93.48043168 -132.93929633 95.28991309 -131.13671875 98.51953125 C-126.95190864 102.3904806 -122.31983841 103.96553536 -116.63671875 104.14453125 C-108.75253762 103.79035905 -100.28933167 101.62428129 -94.6953125 95.81640625 C-92.95256751 93.52393633 -91.65996385 91.52430279 -90.63671875 88.83203125 C-91.50472412 84.4196706 -92.88590559 82.56359279 -96.07421875 79.45703125 C-106.19146297 74.84214792 -117.18046116 76.4977321 -126.63671875 81.83203125 Z " fill="#D3CBBC" transform="translate(325.63671875,200.16796875)"/>
<path d="M0 0 C7.70793397 6.83203239 11.21131266 13.01573514 11.96484375 23.22265625 C12.05144947 30.06450831 9.56482339 35.29628258 6 41 C5.34 41 4.68 41 4 41 C4 41.66 4 42.32 4 43 C3.34 43 2.68 43 2 43 C2 43.66 2 44.32 2 45 C-6.39945515 51.25075732 -13.68320732 51.93789024 -24 51 C-27.11861699 49.98401996 -29.23331297 48.80681602 -32 47 C-32 46.34 -32 45.68 -32 45 C-32.75796875 44.77183594 -33.5159375 44.54367187 -34.296875 44.30859375 C-37.59993427 42.70956939 -38.47913583 41.236075 -40.25 38.0625 C-40.75015625 37.18722656 -41.2503125 36.31195313 -41.765625 35.41015625 C-44.79309493 29.49892541 -44.78623923 23.50241093 -44 17 C-42.3835798 12.74923902 -40.35284734 8.88639962 -38 5 C-37.34 5 -36.68 5 -36 5 C-36 4.34 -36 3.68 -36 3 C-35.34 3 -34.68 3 -34 3 C-34 2.34 -34 1.68 -34 1 C-23.17510442 -5.76555974 -11.05150449 -7.54429188 0 0 Z M-28.9375 14.0625 C-31.4309724 18.60942026 -31.4672177 22.9471271 -31 28 C-29.2375267 33.18950471 -26.86603587 35.52107607 -22 38 C-17.68643199 39.28004254 -14.6554243 39.18885107 -10.3125 37.9375 C-5.65401687 35.21272685 -2.74644424 32.23933272 -1 27 C-0.41454788 21.02838839 -1.65576035 16.87334922 -5 12 C-12.33229262 5.50568368 -22.56472749 7.27858087 -28.9375 14.0625 Z " fill="#CDC4B6" transform="translate(310,265)"/>
<path d="M0 0 C0.66 0.33 1.32 0.66 2 1 C1.25 5.75 1.25 5.75 -1 8 C-0.01 8.33 0.98 8.66 2 9 C2.99 8.01 3.98 7.02 5 6 C5.66 7.98 6.32 9.96 7 12 C6.360625 12.61875 5.72125 13.2375 5.0625 13.875 C2.63245566 16.37868204 2.08508551 17.36185869 1.625 20.8125 C1.74060583 24.15198997 1.74060583 24.15198997 4.125 26.75 C9.36602476 30.85167155 14.4603592 31.60233534 21 31 C26.14834902 30.13871605 30.36627375 28.42718994 35 26 C35.66 26 36.32 26 37 26 C37.226875 25.360625 37.45375 24.72125 37.6875 24.0625 C39 22 39 22 41.625 21.25 C42.40875 21.1675 43.1925 21.085 44 21 C43.67 23.97 43.34 26.94 43 30 C43.99 29.01 44.98 28.02 46 27 C47.32 27.66 48.64 28.32 50 29 C49.06725891 30.12894876 48.12859878 31.25300876 47.1875 32.375 C46.66542969 33.00148438 46.14335937 33.62796875 45.60546875 34.2734375 C44 36 44 36 41 38 C40.01 38 39.02 38 38 38 C38 38.66 38 39.32 38 40 C27.757713 45.15566807 15.93666324 45.63772416 4.80078125 43.33984375 C-2.39114409 40.79568639 -7.18160535 36.16752616 -10.9375 29.625 C-12.79661644 23.28213214 -12.80313875 17.23214127 -10.265625 11.0625 C-7.60928762 6.73365389 -3.73968913 3.38688827 0 0 Z " fill="#D2CABB" transform="translate(192,272)"/>
<path d="M0 0 C0.66 0.33 1.32 0.66 2 1 C1.175 1.70125 0.35 2.4025 -0.5 3.125 C-3.2768061 5.77300862 -3.2768061 5.77300862 -3.375 9.1875 C-3.16223204 11.94643572 -3.16223204 11.94643572 -2 14 C-1.4225 13.690625 -0.845 13.38125 -0.25 13.0625 C1.84294184 12.07416636 3.74535275 11.4831387 6 11 C5.690625 11.639375 5.38125 12.27875 5.0625 12.9375 C3.24251096 18.18335077 2.14193019 23.49457698 4 28.875 C7.18987064 33.85917287 11.3181839 34.53129715 16.8125 36.0625 C20 37 20 37 22 39 C22.5 41.875 22.5 41.875 22 45 C18.72561072 48.19252955 16.83105291 48.98614912 12.25 49.0625 C5.90049484 47.843785 -0.63266825 44.98971706 -4.9375 40.0625 C-10.01695019 32.52028609 -11.8256773 26.08565243 -10.4375 17.0625 C-8.92446993 10.44040265 -5.7227529 3.8151686 0 0 Z " fill="#D7CEC0" transform="translate(189,190)"/>
<path d="M0 0 C0.66 0.33 1.32 0.66 2 1 C1.25 5.75 1.25 5.75 -1 8 C-0.01 8.33 0.98 8.66 2 9 C2.99 8.01 3.98 7.02 5 6 C5.66 7.98 6.32 9.96 7 12 C6.360625 12.61875 5.72125 13.2375 5.0625 13.875 C2.63245566 16.37868204 2.08508551 17.36185869 1.625 20.8125 C2.1225495 25.04167077 3.83115663 26.28384854 7 29 C7.66 29.66 8.32 30.32 9 31 C6.36 30.67 3.72 30.34 1 30 C1 30.66 1 31.32 1 32 C-1.475 32.495 -1.475 32.495 -4 33 C-2.47793991 35.62901288 -1.15634036 37.84365964 1 40 C-4.38863813 39.1928912 -6.86922279 35.12442438 -10 31 C-12.90272835 26.07798237 -12.60772463 20.45478242 -11.640625 14.95703125 C-9.72704384 8.47930043 -4.88179976 4.42125261 0 0 Z " fill="#C9C1B3" transform="translate(192,272)"/>
<path d="M0 0 C0.66 0.33 1.32 0.66 2 1 C2 1.66 2 2.32 2 3 C3.64006462 6.0589579 3.64006462 6.0589579 5.9375 6.8125 C8.31126059 7.24586971 8.31126059 7.24586971 11 5 C11.33 5.33 11.66 5.66 12 6 C14.32817964 6.36760731 16.6618385 6.70241581 19 7 C19 7.33 19 7.66 19 8 C18.29875 8.13535156 17.5975 8.27070313 16.875 8.41015625 C6.39018967 10.78918251 1.08171416 16.36264335 -5.5546875 24.49609375 C-6.03164063 24.99238281 -6.50859375 25.48867187 -7 26 C-7.66 26 -8.32 26 -9 26 C-9.226875 26.556875 -9.45375 27.11375 -9.6875 27.6875 C-11.35896766 30.63246684 -13.55276352 32.68156544 -16 35 C-15.67 33.35 -15.34 31.7 -15 30 C-16.32 29.67 -17.64 29.34 -19 29 C-19 26 -19 26 -18 24 C-17.34 24 -16.68 24 -16 24 C-16.33 23.01 -16.66 22.02 -17 21 C-17.66 21 -18.32 21 -19 21 C-14.92843458 12.09984443 -7.90048149 5.52302178 0 0 Z M-1 3 C0 5 0 5 0 5 Z " fill="#CCC3B5" transform="translate(300,204)"/>
<path d="M0 0 C1.42505859 0.10054688 1.42505859 0.10054688 2.87890625 0.203125 C5.75902799 0.81872354 6.61163858 1.50790878 8.4375 3.75 C10.3629644 5.9736068 10.3629644 5.9736068 13.4375 6.75 C13.4375 8.07 13.4375 9.39 13.4375 10.75 C14.0975 10.75 14.7575 10.75 15.4375 10.75 C14.4375 12.75 14.4375 12.75 11.875 14 C8.02545579 14.83990055 6.12244629 14.35091758 2.44921875 13.2734375 C-2.92913958 11.87401999 -7.48549466 12.76872962 -12.5625 14.75 C-14.68758244 11.56237635 -15.0645163 9.48487777 -15.5625 5.75 C-14.2425 5.75 -12.9225 5.75 -11.5625 5.75 C-11.8925 4.76 -12.2225 3.77 -12.5625 2.75 C-11.5725 2.75 -10.5825 2.75 -9.5625 2.75 C-9.5625 2.09 -9.5625 1.43 -9.5625 0.75 C-6.24493521 -0.28526844 -3.45296026 -0.28187431 0 0 Z " fill="#DFD7C7" transform="translate(296.5625,260.25)"/>
<path d="M0 0 C1.7074998 1.28062485 3.37373596 2.61767557 5 4 C5 4.66 5 5.32 5 6 C5.66 6 6.32 6 7 6 C7 6.66 7 7.32 7 8 C11.3039919 9.74849671 15.64750591 11.3770361 20 13 C18.68 13.33 17.36 13.66 16 14 C16 14.66 16 15.32 16 16 C13 17 13 17 12 17 C12.33 17.99 12.66 18.98 13 20 C12.67 20.66 12.34 21.32 12 22 C12.99 22.99 13.98 23.98 15 25 C6.84000557 23.66629265 0.23488672 19.30870963 -5 13 C-5 11.68 -5 10.36 -5 9 C-5.66 9 -6.32 9 -7 9 C-6.34 7.68 -5.68 6.36 -5 5 C-4.01 5 -3.02 5 -2 5 C-1.67 4.67 -1.34 4.34 -1 4 C-0.34 3.67 0.32 3.34 1 3 C0.67 2.01 0.34 1.02 0 0 Z " fill="#C4BCAE" transform="translate(176,309)"/>
<path d="M0 0 C1.76734646 2.65101969 2.5018448 4.33863611 3.375 7.3125 C5.36035013 13.46808307 8.91888336 18.04435837 13 23 C11.02 22.34 9.04 21.68 7 21 C7.33 23.31 7.66 25.62 8 28 C4.20836973 30.52775351 1.19125969 30.22443035 -3.1875 30.125 C-3.93708984 30.11597656 -4.68667969 30.10695312 -5.45898438 30.09765625 C-7.30612654 30.07412578 -9.15310412 30.03825561 -11 30 C-11 29.67 -11 29.34 -11 29 C-7.37 28.67 -3.74 28.34 0 28 C-0.66 26.68 -1.32 25.36 -2 24 C-2.66 24 -3.32 24 -4 24 C-7.22265625 18.82421875 -7.22265625 18.82421875 -8 17 C-7.67 16.01 -7.34 15.02 -7 14 C-5.02 14 -3.04 14 -1 14 C-1 12.68 -1 11.36 -1 10 C-0.34 10 0.32 10 1 10 C0.67 6.7 0.34 3.4 0 0 Z " fill="#D8CFBF" transform="translate(170,217)"/>
<path d="M0 0 C1.0625 1.875 1.0625 1.875 2 4 C1.67 4.66 1.34 5.32 1 6 C1.66 6 2.32 6 3 6 C3.33 5.34 3.66 4.68 4 4 C5.98 5.32 7.96 6.64 10 8 C9.34 9.98 8.68 11.96 8 14 C7.34 14 6.68 14 6 14 C5.773125 14.556875 5.54625 15.11375 5.3125 15.6875 C3.62449964 18.66159588 1.53323483 20.72008865 -1 23 C-1.66 23 -2.32 23 -3 23 C-3 23.66 -3 24.32 -3 25 C-5.375 26.6875 -5.375 26.6875 -8 28 C-8.66 27.67 -9.32 27.34 -10 27 C-9.01 26.67 -8.02 26.34 -7 26 C-7 25.01 -7 24.02 -7 23 C-6.34 22.67 -5.68 22.34 -5 22 C-5 21.01 -5 20.02 -5 19 C-4.34 19 -3.68 19 -3 19 C-3 17.68 -3 16.36 -3 15 C-4.32 14.67 -5.64 14.34 -7 14 C-7.33 14.66 -7.66 15.32 -8 16 C-8.33 14.68 -8.66 13.36 -9 12 C-8.34 12 -7.68 12 -7 12 C-6.72414063 11.42765625 -6.44828125 10.8553125 -6.1640625 10.265625 C-5.00532152 8.01035733 -3.73124294 5.89143622 -2.375 3.75 C-1.92898438 3.04359375 -1.48296875 2.3371875 -1.0234375 1.609375 C-0.68570312 1.07828125 -0.34796875 0.5471875 0 0 Z " fill="#CFC7BA" transform="translate(326,303)"/>
<path d="M0 0 C0.61875 0.66 1.2375 1.32 1.875 2 C3.75637427 4.2284549 3.75637427 4.2284549 6 4 C6.33 3.01 6.66 2.02 7 1 C6.43214824 9.89634423 1.82925985 16.50453903 -4 23 C-4.66 22.67 -5.32 22.34 -6 22 C-6 20.68 -6 19.36 -6 18 C-6.515625 17.505 -7.03125 17.01 -7.5625 16.5 C-8.036875 16.005 -8.51125 15.51 -9 15 C-8.6875 12.8125 -8.6875 12.8125 -8 11 C-10.97 13.475 -10.97 13.475 -14 16 C-14.66 15.67 -15.32 15.34 -16 15 C-15.44570312 14.38511719 -14.89140625 13.77023438 -14.3203125 13.13671875 C-13.59585938 12.32847656 -12.87140625 11.52023438 -12.125 10.6875 C-11.40570313 9.88699219 -10.68640625 9.08648437 -9.9453125 8.26171875 C-7.88394498 5.95810917 -7.88394498 5.95810917 -6 3 C-6 3.99 -6 4.98 -6 6 C-5.34 6 -4.68 6 -4 6 C-4 5.34 -4 4.68 -4 4 C-3.01 4 -2.02 4 -1 4 C-0.67 2.68 -0.34 1.36 0 0 Z " fill="#C7C0B1" transform="translate(232,226)"/>
<path d="M0 0 C0.66 0.33 1.32 0.66 2 1 C2 1.66 2 2.32 2 3 C2.66 3 3.32 3 4 3 C4.60411899 10.24942792 4.60411899 10.24942792 1.9375 13.5625 C-1.81030806 15.39653373 -4.00417746 14.94019354 -8 14 C-8 13.34 -8 12.68 -8 12 C-8.66 12 -9.32 12 -10 12 C-11.40457737 9.19084526 -11.24895157 7.11189466 -11 4 C-8.7746975 -1.28509343 -5.05920627 -0.40152431 0 0 Z " fill="#BAB1A6" transform="translate(295,185)"/>
<path d="M0 0 C2.38268836 1.58845891 2.88603501 2.69066646 3.875 5.375 C4.0376843 8.79137035 3.02489572 10.30013904 1 13 C-2.12860495 14.56430248 -4.55602925 14.35627284 -8 14 C-10.5 11.9375 -10.5 11.9375 -12 9 C-12 5.19715329 -11.7968187 2.98069994 -9.375 0 C-5.91616747 -1.45635054 -3.58701629 -0.91305869 0 0 Z " fill="#AFA69B" transform="translate(259,302)"/>
<path d="M0 0 C3.4375 0.9375 3.4375 0.9375 5.375 2.0625 C7.06384556 5.0428157 6.73621874 7.59185012 6.4375 10.9375 C4.4375 13.9375 4.4375 13.9375 1 14.6875 C-2.5625 14.9375 -2.5625 14.9375 -5.5625 13.9375 C-5.5625 13.2775 -5.5625 12.6175 -5.5625 11.9375 C-6.2225 11.9375 -6.8825 11.9375 -7.5625 11.9375 C-8.04326923 4.72596154 -8.04326923 4.72596154 -6 1.375 C-3.5625 -0.0625 -3.5625 -0.0625 0 0 Z " fill="#EBE1D4" transform="translate(294.5625,281.0625)"/>
<path d="M0 0 C3.3 0.33 6.6 0.66 10 1 C9.67 1.99 9.34 2.98 9 4 C10.32 4.66 11.64 5.32 13 6 C12.61912394 8.20908114 12.07400952 9.87374847 10.9375 11.8125 C7.75466444 13.76327018 4.52327743 12.76716525 1 12 C0.01 11.67 -0.98 11.34 -2 11 C-2 10.01 -2 9.02 -2 8 C-2.99 8 -3.98 8 -5 8 C-4 5 -4 5 -2 3 C-1.34 2.67 -0.68 2.34 0 2 C0 1.34 0 0.68 0 0 Z " fill="#D4CCBE" transform="translate(196,226)"/>
<path d="M0 0 C1.32 0.66 2.64 1.32 4 2 C3.01 3.485 3.01 3.485 2 5 C4.475 6.98 4.475 6.98 7 9 C2.10876788 12.33493099 -2.49779679 14.86025431 -8 17 C-8.66609615 13.97288979 -9.12524726 11.10508838 -9 8 C-6.8125 5.125 -6.8125 5.125 -4 3 C-3.236875 2.401875 -2.47375 1.80375 -1.6875 1.1875 C-1.130625 0.795625 -0.57375 0.40375 0 0 Z " fill="#EAE2D2" transform="translate(194,188)"/>
<path d="M0 0 C0.33 0.99 0.66 1.98 1 3 C3.64 2.67 6.28 2.34 9 2 C9.33 2.66 9.66 3.32 10 4 C9.01 4.66 8.02 5.32 7 6 C6.40929986 7.94603274 6.40929986 7.94603274 6 10 C3.67427083 13.48859375 2.16172903 14.05832588 -1.625 15.6875 C-3.12933594 16.34298828 -3.12933594 16.34298828 -4.6640625 17.01171875 C-5.82035156 17.50091797 -5.82035156 17.50091797 -7 18 C-6.67 16.02 -6.34 14.04 -6 12 C-5.01 12 -4.02 12 -3 12 C-3.37125 10.14375 -3.37125 10.14375 -3.75 8.25 C-4.04296875 6.046875 -4.04296875 6.046875 -4 4 C-2.0625 1.5 -2.0625 1.5 0 0 Z " fill="#E8E0D1" transform="translate(324,225)"/>
<path d="M0 0 C0.66 0.268125 1.32 0.53625 2 0.8125 C5.64939067 2.25705047 9.32245433 3.62871178 13 5 C11.68 5.33 10.36 5.66 9 6 C9 6.66 9 7.32 9 8 C6 9 6 9 5 9 C5.33 9.99 5.66 10.98 6 12 C5.67 12.66 5.34 13.32 5 14 C5.99 14.99 6.98 15.98 8 17 C3.24518354 16.42365861 0.02951788 14.44931479 -4 12 C-3.34 11.67 -2.68 11.34 -2 11 C-2 10.34 -2 9.68 -2 9 C-1.34 8.34 -0.68 7.68 0 7 C-0.29299023 5.32577014 -0.62690101 3.65821773 -1 2 C-0.67 1.34 -0.34 0.68 0 0 Z " fill="#BCB3A7" transform="translate(183,317)"/>
<path d="M0 0 C2.64752004 2.57784846 4.94432065 4.91648098 7 8 C6.75 10.625 6.75 10.625 6 13 C3.67313547 14.16343227 2.15278587 14.19895988 -0.4375 14.25 C-1.21996094 14.27578125 -2.00242187 14.3015625 -2.80859375 14.328125 C-5.47931509 13.92823089 -6.31977439 13.05300878 -8 11 C-7.67 10.34 -7.34 9.68 -7 9 C-5.68 9.66 -4.36 10.32 -3 11 C-2.25073929 7.33694766 -1.7619986 4.57644848 -3 1 C-2.34 1.33 -1.68 1.66 -1 2 C-0.67 1.34 -0.34 0.68 0 0 Z " fill="#ABA196" transform="translate(319,178)"/>
<path d="M0 0 C1.175625 0.45375 2.35125 0.9075 3.5625 1.375 C6.31089358 2.41480077 9.03383473 3.31482493 11.875 4.0625 C15 5 15 5 17 7 C17.125 10.125 17.125 10.125 17 13 C15.02 13.99 15.02 13.99 13 15 C13.33 13.35 13.66 11.7 14 10 C13.01 9.34 12.02 8.68 11 8 C11 7.34 11 6.68 11 6 C6.545 5.01 6.545 5.01 2 4 C2 3.34 2 2.68 2 2 C1.34 2 0.68 2 0 2 C0 1.34 0 0.68 0 0 Z M0 4 C0.66 4 1.32 4 2 4 C2 4.66 2 5.32 2 6 C1.34 6 0.68 6 0 6 C0 5.34 0 4.68 0 4 Z M-11 5 C-10.34 5 -9.68 5 -9 5 C-8.34 5.99 -7.68 6.98 -7 8 C-6.34 8 -5.68 8 -5 8 C-4.34 7.34 -3.68 6.68 -3 6 C-0.875 6.375 -0.875 6.375 1 7 C-0.32 8.65 -1.64 10.3 -3 12 C-2.01 12 -1.02 12 0 12 C0 12.66 0 13.32 0 14 C-5.66355715 12.68289369 -7.70588041 10.5536359 -11 6 C-11 5.67 -11 5.34 -11 5 Z " fill="#9E968B" transform="translate(194,222)"/>
<path d="M0 0 C4.38462134 0.50109958 6.8000997 1.98295115 10 5 C10 5.66 10 6.32 10 7 C9.01 7 8.02 7 7 7 C7.33 7.99 7.66 8.98 8 10 C8.99 9.67 9.98 9.34 11 9 C11 9.66 11 10.32 11 11 C9.37373596 12.38232443 7.7074998 13.71937515 6 15 C4 13.8125 4 13.8125 2 12 C1.8125 9.625 1.8125 9.625 2 7 C1.57724891 4.40310043 1.17629827 2.35259654 0 0 Z " fill="#EBE2D4" transform="translate(304,169)"/>
<path d="M0 0 C0.33 0.99 0.66 1.98 1 3 C0.360625 3.2475 -0.27875 3.495 -0.9375 3.75 C-1.9584375 4.36875 -1.9584375 4.36875 -3 5 C-3.12375 5.62132812 -3.2475 6.24265625 -3.375 6.8828125 C-4.22195368 9.7518681 -5.6142128 10.47553666 -8.0625 12.125 C-10.23763185 13.55896197 -10.23763185 13.55896197 -12 15 C-12 15.66 -12 16.32 -12 17 C-12.66 17 -13.32 17 -14 17 C-13.67 18.32 -13.34 19.64 -13 21 C-17.95 21.495 -17.95 21.495 -23 22 C-19.79694592 18.69017745 -16.45235926 15.61294281 -13 12.5625 C-9.27717569 9.24348873 -6.11836965 5.87433805 -3 2 C-2.01 1.34 -1.02 0.68 0 0 Z M-18 21 C-17.34 21.66 -16.68 22.32 -16 23 C-16.66 23 -17.32 23 -18 23 C-18 22.34 -18 21.68 -18 21 Z " fill="#A29A8D" transform="translate(271,236)"/>
<path d="M0 0 C1.32 0.33 2.64 0.66 4 1 C4 1.66 4 2.32 4 3 C4.66 3 5.32 3 6 3 C6 3.66 6 4.32 6 5 C5.34 5 4.68 5 4 5 C4 5.66 4 6.32 4 7 C1.75 8.75 1.75 8.75 -1 10 C-3.25 9.375 -3.25 9.375 -5 8 C-5.33 7.01 -5.66 6.02 -6 5 C-5.01 4.01 -4.02 3.02 -3 2 C-2.67 2.33 -2.34 2.66 -2 3 C-1.34 2.01 -0.68 1.02 0 0 Z " fill="#EAE2D2" transform="translate(190,221)"/>
<path d="M0 0 C0.99 0.33 1.98 0.66 3 1 C2.01 2.485 2.01 2.485 1 4 C5.29 4 9.58 4 14 4 C14 15.88 14 27.76 14 40 C13.67 40 13.34 40 13 40 C13 28.45 13 16.9 13 5 C8.71 5 4.42 5 0 5 C-0.66 4.67 -1.32 4.34 -2 4 C-2 3.01 -2 2.02 -2 1 C-1.34 0.67 -0.68 0.34 0 0 Z " fill="#807770" transform="translate(317,254)"/>
<path d="M0 0 C1.37478516 0.01740234 1.37478516 0.01740234 2.77734375 0.03515625 C3.69644531 0.04417969 4.61554688 0.05320313 5.5625 0.0625 C6.27277344 0.07410156 6.98304688 0.08570313 7.71484375 0.09765625 C6.32111555 4.53224598 4.1090214 6.97143999 0.71484375 10.09765625 C0.05484375 9.76765625 -0.60515625 9.43765625 -1.28515625 9.09765625 C-1.28515625 8.43765625 -1.28515625 7.77765625 -1.28515625 7.09765625 C-1.9276799 5.08976985 -2.59257396 3.08883033 -3.28515625 1.09765625 C-2.28515625 0.09765625 -2.28515625 0.09765625 0 0 Z " fill="#BCB5A7" transform="translate(269.28515625,213.90234375)"/>
<path d="M0 0 C0.66 0 1.32 0 2 0 C2.33 0.33 2.66 0.66 3 1 C3.99 0.67 4.98 0.34 6 0 C6.66 0.33 7.32 0.66 8 1 C8.625 4.0625 8.625 4.0625 9 7 C5.84319701 7.84181413 3.27427197 8 0 8 C0 5.36 0 2.72 0 0 Z " fill="#EAE1D0" transform="translate(251,257)"/>
<path d="M0 0 C2 3 2 3 1.625 5.1875 C1.41875 5.785625 1.2125 6.38375 1 7 C0.34 7 -0.32 7 -1 7 C-1.0588996 10.31242312 -1.09389398 13.62470851 -1.125 16.9375 C-1.14175781 17.86369141 -1.15851563 18.78988281 -1.17578125 19.74414062 C-1.21840994 25.81872962 -0.53224502 31.11835079 1 37 C-1 36 -1 36 -2.10546875 33.0546875 C-3.30669326 28.43132879 -3.33042041 23.87749267 -3.3125 19.125 C-3.32861328 18.27808594 -3.34472656 17.43117187 -3.36132812 16.55859375 C-3.36593997 10.53552094 -2.2344086 5.58475339 0 0 Z " fill="#433D35" transform="translate(161,194)"/>
<path d="M0 0 C0.66 0.33 1.32 0.66 2 1 C1.814375 1.61875 1.62875 2.2375 1.4375 2.875 C0.76313824 5.04160178 0.76313824 5.04160178 2 7 C1.67 7.99 1.34 8.98 1 10 C-0.65 10.33 -2.3 10.66 -4 11 C-3.67 9.02 -3.34 7.04 -3 5 C-3.928125 5.515625 -4.85625 6.03125 -5.8125 6.5625 C-9 8 -9 8 -12 7 C-6.375 4 -6.375 4 -3 4 C-3 3.34 -3 2.68 -3 2 C-2.01 1.34 -1.02 0.68 0 0 Z " fill="#A99F91" transform="translate(320,227)"/>
<path d="M0 0 C4.45827926 -0.0578304 8.9164628 -0.09353855 13.375 -0.125 C15.28152344 -0.15013672 15.28152344 -0.15013672 17.2265625 -0.17578125 C18.43828125 -0.18222656 19.65 -0.18867188 20.8984375 -0.1953125 C22.01911621 -0.20578613 23.13979492 -0.21625977 24.29443359 -0.22705078 C27 0 27 0 29 2 C28.319375 1.98839844 27.63875 1.97679687 26.9375 1.96484375 C18.25271113 1.8840013 9.65691267 2.38478793 1 3 C0.67 2.01 0.34 1.02 0 0 Z " fill="#544E48" transform="translate(231,196)"/>
<path d="M0 0 C3.12290635 0.48578543 5.99580359 0.9986012 9 2 C9.8125 3.9375 9.8125 3.9375 10 6 C9.34 6.66 8.68 7.32 8 8 C5.9375 7.75 5.9375 7.75 4 7 C3.67 6.34 3.34 5.68 3 5 C1.02 5.99 1.02 5.99 -1 7 C-1.33 6.34 -1.66 5.68 -2 5 C-1.34 4.67 -0.68 4.34 0 4 C0 2.68 0 1.36 0 0 Z " fill="#EBE2D2" transform="translate(327,303)"/>
<path d="M0 0 C3.4375 0.9375 3.4375 0.9375 5.375 2.0625 C7.02170065 4.96844231 6.62212917 7.67571805 6.4375 10.9375 C6.1075 10.9375 5.7775 10.9375 5.4375 10.9375 C5.31375 10.195 5.19 9.4525 5.0625 8.6875 C4.48263299 6.13608515 3.70041261 4.2107427 2.4375 1.9375 C1.509375 2.246875 0.58125 2.55625 -0.375 2.875 C-2.4375 3.5625 -4.5 4.25 -6.5625 4.9375 C-6.2325 7.2475 -5.9025 9.5575 -5.5625 11.9375 C-6.2225 11.9375 -6.8825 11.9375 -7.5625 11.9375 C-8.04326923 4.72596154 -8.04326923 4.72596154 -6 1.375 C-3.5625 -0.0625 -3.5625 -0.0625 0 0 Z " fill="#837C75" transform="translate(294.5625,281.0625)"/>
<path d="M0 0 C0.99 0.66 1.98 1.32 3 2 C2.01 2.99 1.02 3.98 0 5 C0.33 5.66 0.66 6.32 1 7 C-4.14285714 12.57142857 -4.14285714 12.57142857 -8 13 C-8 12.01 -8 11.02 -8 10 C-7.401875 9.566875 -6.80375 9.13375 -6.1875 8.6875 C-3.38903957 6.52868767 -2.45147419 4.17941966 -1 1 C-0.67 0.67 -0.34 0.34 0 0 Z " fill="#EBE3D4" transform="translate(282,224)"/>
<path d="M0 0 C0.99 0.33 1.98 0.66 3 1 C1.79157144 5.43090471 0.48331435 7.98112756 -3 11 C-3.99 10.01 -4.98 9.02 -6 8 C-5.01 7.67 -4.02 7.34 -3 7 C-3.061875 6.21625 -3.12375 5.4325 -3.1875 4.625 C-3.125625 3.75875 -3.06375 2.8925 -3 2 C-2.01 1.34 -1.02 0.68 0 0 Z " fill="#EAE1D1" transform="translate(196,271)"/>
<path d="M0 0 C1.32 0.66 2.64 1.32 4 2 C3.06725891 3.12894876 2.12859878 4.25300876 1.1875 5.375 C0.66542969 6.00148438 0.14335937 6.62796875 -0.39453125 7.2734375 C-2 9 -2 9 -5 11 C-7.1875 10.625 -7.1875 10.625 -9 10 C-7.75 8.5 -7.75 8.5 -6 7 C-4.68 7 -3.36 7 -2 7 C-1.855625 6.21625 -1.71125 5.4325 -1.5625 4.625 C-1 2 -1 2 0 0 Z " fill="#B9AFA3" transform="translate(238,299)"/>
<path d="M0 0 C4.89647119 0.75330326 8.74715297 3.49658356 11.875 7.25 C12.24625 7.8275 12.6175 8.405 13 9 C12.67 9.66 12.34 10.32 12 11 C10.68 10.67 9.36 10.34 8 10 C8 9.34 8 8.68 8 8 C7.34 8 6.68 8 6 8 C5.67 6.68 5.34 5.36 5 4 C4.360625 3.896875 3.72125 3.79375 3.0625 3.6875 C2.381875 3.460625 1.70125 3.23375 1 3 C0.67 2.01 0.34 1.02 0 0 Z " fill="#9C9388" transform="translate(304,263)"/>
<path d="M0 0 C2.64 0.99 5.28 1.98 8 3 C8 3.66 8 4.32 8 5 C12.29 5 16.58 5 21 5 C20.67 5.66 20.34 6.32 20 7 C12.93729159 8.43648307 8.36508251 7.42735212 2 4 C2 3.34 2 2.68 2 2 C1.34 2 0.68 2 0 2 C0 1.34 0 0.68 0 0 Z " fill="#443F3B" transform="translate(246,219)"/>
<path d="M0 0 C1.65 0 3.3 0 5 0 C5.66 1.65 6.32 3.3 7 5 C5.03533587 6.06775224 3.03144641 7.06553465 1 8 C0.34 7.67 -0.32 7.34 -1 7 C-0.67 4.69 -0.34 2.38 0 0 Z " fill="#EBE2D3" transform="translate(289,186)"/>
<path d="M0 0 C0 4 0 4 -2 7 C-2.66 6.34 -3.32 5.68 -4 5 C-5.98821313 4.60235737 -7.98944339 4.26224651 -10 4 C-7.93026888 -0.13946223 -4.25879356 -0.23659964 0 0 Z " fill="#B4AEA2" transform="translate(330,250)"/>
<path d="M0 0 C3.00333458 1.50166729 4.69233155 2.36847002 6.1875 5.4375 C6.455625 6.283125 6.72375 7.12875 7 8 C7.66 9.32 8.32 10.64 9 12 C4.38 12 -0.24 12 -5 12 C-5 11.67 -5 11.34 -5 11 C0.445 10.505 0.445 10.505 6 10 C5.34 8.68 4.68 7.36 4 6 C3.34 6 2.68 6 2 6 C1.34 4.02 0.68 2.04 0 0 Z " fill="#837C72" transform="translate(164,235)"/>
<path d="M0 0 C0.78375 0.04125 1.5675 0.0825 2.375 0.125 C2.045 1.115 1.715 2.105 1.375 3.125 C0.715 3.125 0.055 3.125 -0.625 3.125 C-0.625 4.775 -0.625 6.425 -0.625 8.125 C-1.945 8.455 -3.265 8.785 -4.625 9.125 C-4.75 5.75 -4.75 5.75 -4.625 2.125 C-2.625 0.125 -2.625 0.125 0 0 Z " fill="#EBE2D8" transform="translate(253.625,302.875)"/>
<path d="M0 0 C0.33 0.99 0.66 1.98 1 3 C1.33 3.66 1.66 4.32 2 5 C-4.625 6.125 -4.625 6.125 -8 5 C-7.1875 3.0625 -7.1875 3.0625 -6 1 C-3 0 -3 0 0 0 Z " fill="#C4BCAF" transform="translate(297,290)"/>
<path d="M0 0 C2.75 -0.25 2.75 -0.25 6 0 C7.32 1.32 8.64 2.64 10 4 C6.04 4 2.08 4 -2 4 C-1.34 2.68 -0.68 1.36 0 0 Z " fill="#E8E1D3" transform="translate(320,254)"/>
<path d="M0 0 C0 3 0 3 -1 5.125 C-2.38453555 9.1055397 -2.1636713 12.82638189 -2 17 C-4.91077893 14.08922107 -4.4247538 11.2942347 -4.65625 7.3125 C-4.79378679 4.80924417 -4.79378679 4.80924417 -7 3 C-4.66785852 1.79371992 -2.50357861 0.8345262 0 0 Z " fill="#7C7268" transform="translate(194,201)"/>
<path d="M0 0 C0.66 0.33 1.32 0.66 2 1 C1.34 2.65 0.68 4.3 0 6 C-0.66 6 -1.32 6 -2 6 C-2 6.66 -2 7.32 -2 8 C-2.66 8 -3.32 8 -4 8 C-4 8.66 -4 9.32 -4 10 C-4.66 9.67 -5.32 9.34 -6 9 C-5.34 6.36 -4.68 3.72 -4 1 C-3.01 1 -2.02 1 -1 1 C-0.67 0.67 -0.34 0.34 0 0 Z " fill="#B2A89D" transform="translate(316,300)"/>
<path d="M0 0 C3.10254781 2.25639841 3.89854958 5.07516127 4.7265625 8.7265625 C5.18720762 12.55649766 4.64785325 16.21793781 4 20 C3.67 20 3.34 20 3 20 C2.90912109 18.62714844 2.90912109 18.62714844 2.81640625 17.2265625 C2.73261719 16.03804687 2.64882813 14.84953125 2.5625 13.625 C2.44068359 11.84996094 2.44068359 11.84996094 2.31640625 10.0390625 C2.18915064 7.08481099 2.18915064 7.08481099 1 5 C0.34 5 -0.32 5 -1 5 C-0.67 3.35 -0.34 1.7 0 0 Z " fill="#706962" transform="translate(274,194)"/>
<path d="M0 0 C0.33 0 0.66 0 1 0 C1 2.97 1 5.94 1 9 C0.01 9.33 -0.98 9.66 -2 10 C-2.99 7.36 -3.98 4.72 -5 2 C-4.01 1.67 -3.02 1.34 -2 1 C-1.34 1.33 -0.68 1.66 0 2 C0 1.34 0 0.68 0 0 Z " fill="#EDE5D6" transform="translate(237,221)"/>
<path d="M0 0 C7.75 -0.125 7.75 -0.125 10 1 C10 1.66 10 2.32 10 3 C10.66 3 11.32 3 12 3 C12 5.64 12 8.28 12 11 C11.67 11 11.34 11 11 11 C10.896875 10.21625 10.79375 9.4325 10.6875 8.625 C10.22404978 5.66954819 10.22404978 5.66954819 7 4 C7 3.01 7 2.02 7 1 C4.36 1.66 1.72 2.32 -1 3 C-0.67 2.01 -0.34 1.02 0 0 Z " fill="#807168" transform="translate(287,185)"/>
<path d="M0 0 C1.32 1.32 2.64 2.64 4 4 C3.01 4.33 2.02 4.66 1 5 C1 5.66 1 6.32 1 7 C-2.875 5.25 -2.875 5.25 -4 3 C-3 1 -3 1 0 0 Z " fill="#E8E0D1" transform="translate(180,321)"/>
<path d="M0 0 C3.875 0.875 3.875 0.875 5 2 C5.04080783 3.99958364 5.04254356 6.00045254 5 8 C3.02 8.99 3.02 8.99 1 10 C1.33 8.35 1.66 6.7 2 5 C1.01 4.34 0.02 3.68 -1 3 C-0.67 2.01 -0.34 1.02 0 0 Z " fill="#99928A" transform="translate(206,227)"/>
<path d="M0 0 C2.00993705 3.01490557 2.72623341 5.2149927 3.625 8.6875 C3.88539063 9.68136719 4.14578125 10.67523438 4.4140625 11.69921875 C4.60742188 12.45847656 4.80078125 13.21773437 5 14 C3.02 13.34 1.04 12.68 -1 12 C-1 11.34 -1 10.68 -1 10 C-0.34 10 0.32 10 1 10 C0.67 6.7 0.34 3.4 0 0 Z " fill="#8B837A" transform="translate(170,217)"/>
<path d="M0 0 C0 2.93077464 -0.44173927 4.69777915 -1.375 7.4375 C-1.63023437 8.19933594 -1.88546875 8.96117187 -2.1484375 9.74609375 C-2.96913838 11.91831581 -3.92310492 13.94453504 -5 16 C-5.02694851 14.04174127 -5.04637218 12.08337774 -5.0625 10.125 C-5.07410156 9.03445312 -5.08570313 7.94390625 -5.09765625 6.8203125 C-5 4 -5 4 -4 2 C-1.9375 0.875 -1.9375 0.875 0 0 Z " fill="#7A736A" transform="translate(175,193)"/>
<path d="M0 0 C0 4.38968456 -2.12805101 5.76905739 -5 9 C-5.66 8.67 -6.32 8.34 -7 8 C-7 6.68 -7 5.36 -7 4 C-6.34 3.67 -5.68 3.34 -5 3 C-5 2.34 -5 1.68 -5 1 C-3.35 0.67 -1.7 0.34 0 0 Z " fill="#8E867A" transform="translate(233,240)"/>
<path d="M0 0 C0.66 0.33 1.32 0.66 2 1 C0.92492371 2.29854721 -0.16043736 3.58858361 -1.25 4.875 C-1.85328125 5.59429687 -2.4565625 6.31359375 -3.078125 7.0546875 C-4.97087634 8.97052118 -6.53657727 9.96449045 -9 11 C-8.34 9.35 -7.68 7.7 -7 6 C-6.34 6 -5.68 6 -5 6 C-5 5.34 -5 4.68 -5 4 C-4.34 4 -3.68 4 -3 4 C-3 3.34 -3 2.68 -3 2 C-2.01 1.34 -1.02 0.68 0 0 Z " fill="#898073" transform="translate(279,264)"/>
<path d="M0 0 C0.99 0.33 1.98 0.66 3 1 C3 2.32 3 3.64 3 5 C3.66 5 4.32 5 5 5 C4.67 5.66 4.34 6.32 4 7 C1.9375 7.625 1.9375 7.625 0 8 C-0.33 7.34 -0.66 6.68 -1 6 C-0.67 5.01 -0.34 4.02 0 3 C-0.66 2.34 -1.32 1.68 -2 1 C-1.34 0.67 -0.68 0.34 0 0 Z " fill="#EDE5D4" transform="translate(307,266)"/>
<path d="M0 0 C0.66 0.33 1.32 0.66 2 1 C-1.77339973 5.95258714 -5.90789714 9.43679155 -11 13 C-8.33754257 7.46396517 -4.91752774 3.68814581 0 0 Z " fill="#6C6458" transform="translate(296,207)"/>
<path d="M0 0 C5.75 1.875 5.75 1.875 8 3 C8 3.66 8 4.32 8 5 C7.34 5 6.68 5 6 5 C5.67 5.66 5.34 6.32 5 7 C2.5 5.1875 2.5 5.1875 0 3 C0 2.01 0 1.02 0 0 Z " fill="#E9E0D1" transform="translate(188,305)"/>
<path d="M0 0 C2.125 0.9375 2.125 0.9375 4 2 C3.34 3.32 2.68 4.64 2 6 C1.01 6 0.02 6 -1 6 C-1 5.34 -1 4.68 -1 4 C-1.66 4 -2.32 4 -3 4 C-2.67 3.01 -2.34 2.02 -2 1 C-1.34 0.67 -0.68 0.34 0 0 Z " fill="#EAE1D1" transform="translate(308,304)"/>
<path d="M0 0 C3.36720387 1.39332574 4.9859524 2.9789286 7 6 C5.8553125 6.2165625 5.8553125 6.2165625 4.6875 6.4375 C1.91827092 6.9632594 1.91827092 6.9632594 -1 8 C-1 6.68 -1 5.36 -1 4 C-0.01 4 0.98 4 2 4 C1.34 2.68 0.68 1.36 0 0 Z " fill="#B0A79A" transform="translate(312,172)"/>
<path d="M0 0 C0.99 0.33 1.98 0.66 3 1 C2.01 2.485 2.01 2.485 1 4 C4.96 4 8.92 4 13 4 C13 4.33 13 4.66 13 5 C10.87506859 5.02693575 8.75004088 5.04636628 6.625 5.0625 C5.44164062 5.07410156 4.25828125 5.08570313 3.0390625 5.09765625 C0 5 0 5 -2 4 C-2 3.01 -2 2.02 -2 1 C-1.34 0.67 -0.68 0.34 0 0 Z " fill="#564C45" transform="translate(317,254)"/>
<path d="M0 0 C0.99 0.33 1.98 0.66 3 1 C2.375 2.9375 2.375 2.9375 1 5 C-2.125 5.75 -2.125 5.75 -5 6 C-2.25 1.125 -2.25 1.125 0 0 Z " fill="#EDE3D6" transform="translate(283,233)"/>
<path d="M0 0 C0.66 0 1.32 0 2 0 C2.66 0.99 3.32 1.98 4 3 C6.05925139 3.72382467 6.05925139 3.72382467 8 4 C8 4.99 8 5.98 8 7 C8.99 7 9.98 7 11 7 C11 7.66 11 8.32 11 9 C5.33644285 7.68289369 3.29411959 5.5536359 0 1 C0 0.67 0 0.34 0 0 Z " fill="#7A736C" transform="translate(183,227)"/>
<path d="M0 0 C2 1 2 1 2 1 Z M-2 1 C-1.34 1 -0.68 1 0 1 C0.12375 1.61875 0.2475 2.2375 0.375 2.875 C0.87197356 5.19120832 0.87197356 5.19120832 3 7 C1.35 7.33 -0.3 7.66 -2 8 C-2 6.68 -2 5.36 -2 4 C-2.66 3.67 -3.32 3.34 -4 3 C-3.34 2.34 -2.68 1.68 -2 1 Z " fill="#EAE1D3" transform="translate(304,203)"/>
<path d="M0 0 C0.99 0 1.98 0 3 0 C3.33 0.66 3.66 1.32 4 2 C4.99 2.66 5.98 3.32 7 4 C4.525 5.485 4.525 5.485 2 7 C2 6.34 2 5.68 2 5 C1.01 4.67 0.02 4.34 -1 4 C-0.34 4 0.32 4 1 4 C0.67 2.68 0.34 1.36 0 0 Z " fill="#A8A196" transform="translate(258,257)"/>
<path d="M0 0 C1.32 0.33 2.64 0.66 4 1 C3.01347016 4.31832766 2.31268497 5.76548627 -0.5 7.875 C-1.325 8.24625 -2.15 8.6175 -3 9 C-3.66 8.67 -4.32 8.34 -5 8 C-4.01 7.67 -3.02 7.34 -2 7 C-2 6.01 -2 5.02 -2 4 C-1.34 3.67 -0.68 3.34 0 3 C0 2.01 0 1.02 0 0 Z " fill="#989187" transform="translate(321,322)"/>
<path d="M0 0 C0.66 0.33 1.32 0.66 2 1 C0.68 3.31 -0.64 5.62 -2 8 C-2.99 7.67 -3.98 7.34 -5 7 C-3.70700306 4.11562221 -2.34058637 2.12780579 0 0 Z " fill="#EAE2D4" transform="translate(223,236)"/>
<path d="M0 0 C1.65 0 3.3 0 5 0 C4.34 1.32 3.68 2.64 3 4 C0.03 4 -2.94 4 -6 4 C-6 3.67 -6 3.34 -6 3 C-4.35 3 -2.7 3 -1 3 C-0.67 2.01 -0.34 1.02 0 0 Z " fill="#ECE4D7" transform="translate(204,233)"/>
<path d="M0 0 C0.66 0.33 1.32 0.66 2 1 C2.625 3.5625 2.625 3.5625 3 6 C1.02 6.99 1.02 6.99 -1 8 C-1.625 5.6875 -1.625 5.6875 -2 3 C-1.34 2.01 -0.68 1.02 0 0 Z " fill="#B9AFA3" transform="translate(196,278)"/>
<path d="M0 0 C1.32 0.33 2.64 0.66 4 1 C2.63016497 4.16115776 2.0109362 4.9927092 -1 7 C-1.33 5.68 -1.66 4.36 -2 3 C-1.34 3 -0.68 3 0 3 C0 2.01 0 1.02 0 0 Z " fill="#E7DED1" transform="translate(164,191)"/>
<path d="M0 0 C0.66 0.33 1.32 0.66 2 1 C-0.07357484 6.06873851 -2.27236232 8.26847601 -7 11 C-5.79618552 8.50638429 -4.54571278 6.31856917 -3 4 C-2.34 4 -1.68 4 -1 4 C-0.67 2.68 -0.34 1.36 0 0 Z " fill="#6F645B" transform="translate(279,225)"/>
<path d="M0 0 C3.26954202 0.56371414 4.82575883 1.49962266 7 4 C5 4.66666667 3 5.33333333 1 6 C0.67 4.02 0.34 2.04 0 0 Z " fill="#E8E0D1" transform="translate(176,237)"/>
<path d="M0 0 C2 3 2 3 1.625 5.1875 C1.41875 5.785625 1.2125 6.38375 1 7 C0.34 7 -0.32 7 -1 7 C-1 8.98 -1 10.96 -1 13 C-1.33 13 -1.66 13 -2 13 C-2.19294408 8.17639811 -1.75747614 4.50353262 0 0 Z " fill="#8F887B" transform="translate(161,194)"/>
<path d="M0 0 C0 3 0 3 -2 6 C-2 6.66 -2 7.32 -2 8 C-2.66 8 -3.32 8 -4 8 C-4.33 8.66 -4.66 9.32 -5 10 C-5.33 8.68 -5.66 7.36 -6 6 C-5.34 6 -4.68 6 -4 6 C-3.71125 5.38125 -3.4225 4.7625 -3.125 4.125 C-2 2 -2 2 0 0 Z " fill="#857D74" transform="translate(323,309)"/>
<path d="M0 0 C0.33 0.99 0.66 1.98 1 3 C0.01 4.485 0.01 4.485 -1 6 C-2.32 6 -3.64 6 -5 6 C-3.63016497 2.83884224 -3.0109362 2.0072908 0 0 Z " fill="#C3BBB1" transform="translate(286,219)"/>
<path d="M0 0 C-0.33 0.99 -0.66 1.98 -1 3 C-3.66666667 3 -6.33333333 3 -9 3 C-5.92807025 0.26939578 -4.09590633 -0.34132553 0 0 Z " fill="#928B82" transform="translate(200,186)"/>
<path d="M0 0 C-4.75 3.875 -4.75 3.875 -7 5 C-7 4.34 -7 3.68 -7 3 C-7.66 2.67 -8.32 2.34 -9 2 C-5.5647952 -0.29013653 -4.014669 -0.17842973 0 0 Z " fill="#A89F96" transform="translate(189,180)"/>
<path d="M0 0 C0.99 1.32 1.98 2.64 3 4 C1.02 5.32 -0.96 6.64 -3 8 C-2.74438677 5.6568787 -2.40729228 3.32156597 -2 1 C-1.34 0.67 -0.68 0.34 0 0 Z " fill="#EDE4D5" transform="translate(175,309)"/>
<path d="M0 0 C-0.33 0.99 -0.66 1.98 -1 3 C-2.65 3.33 -4.3 3.66 -6 4 C-6 3.01 -6 2.02 -6 1 C-4 0 -4 0 0 0 Z " fill="#A7A097" transform="translate(236,306)"/>
<path d="M0 0 C0.33 0 0.66 0 1 0 C1 2.31 1 4.62 1 7 C0.01 7.33 -0.98 7.66 -2 8 C-2.33 7.34 -2.66 6.68 -3 6 C-2.06553465 3.96855359 -1.06775224 1.96466413 0 0 Z " fill="#E0D7CC" transform="translate(299,286)"/>
<path d="M0 0 C0.66 0.33 1.32 0.66 2 1 C1.67 2.32 1.34 3.64 1 5 C-0.98 5.33 -2.96 5.66 -5 6 C-3.35 4.02 -1.7 2.04 0 0 Z " fill="#A0988E" transform="translate(192,272)"/>
<path d="M0 0 C0.99 0.33 1.98 0.66 3 1 C0.525 4.465 0.525 4.465 -2 8 C-2.66 7.67 -3.32 7.34 -4 7 C-3.34 6.34 -2.68 5.68 -2 5 C-2 3.68 -2 2.36 -2 1 C-1.34 0.67 -0.68 0.34 0 0 Z " fill="#7B746D" transform="translate(332,229)"/>
<path d="M0 0 C0.928125 0.2784375 0.928125 0.2784375 1.875 0.5625 C4.04160178 1.23686176 4.04160178 1.23686176 6 0 C6 0.99 6 1.98 6 3 C4.02 3.33 2.04 3.66 0 4 C0 2.68 0 1.36 0 0 Z " fill="#EBE3D3" transform="translate(163,228)"/>
<path d="M0 0 C2.64 0.99 5.28 1.98 8 3 C7.67 3.66 7.34 4.32 7 5 C5.35 4.67 3.7 4.34 2 4 C2 3.34 2 2.68 2 2 C1.34 2 0.68 2 0 2 C0 1.34 0 0.68 0 0 Z " fill="#938B82" transform="translate(246,219)"/>
<path d="M0 0 C3.65316671 1.24976756 4.78065836 1.67098753 7 5 C3.31245243 4.50168276 1.39509338 3.89932357 -1 1 C-0.67 0.67 -0.34 0.34 0 0 Z " fill="#9D968C" transform="translate(325,201)"/>
<path d="M0 0 C2.97 0.495 2.97 0.495 6 1 C5.01 2.485 5.01 2.485 4 4 C3.34 4 2.68 4 2 4 C2 4.99 2 5.98 2 7 C1.34 6.67 0.68 6.34 0 6 C0 4.02 0 2.04 0 0 Z " fill="#958E83" transform="translate(254,263)"/>
<path d="M0 0 C1.37562854 1.28965176 2.70766393 2.62689293 4 4 C4 4.66 4 5.32 4 6 C2.68 5.67 1.36 5.34 0 5 C0 4.34 0 3.68 0 3 C-0.66 3 -1.32 3 -2 3 C-2 2.34 -2 1.68 -2 1 C-1.34 0.67 -0.68 0.34 0 0 Z " fill="#EAE1D4" transform="translate(261,254)"/>
<path d="M0 0 C-3 2 -3 2 -6 2 C-6.33 2.99 -6.66 3.98 -7 5 C-7.99 4.34 -8.98 3.68 -10 3 C-3.375 -1.125 -3.375 -1.125 0 0 Z " fill="#6F695D" transform="translate(192,167)"/>
<path d="M0 0 C0.268125 0.639375 0.53625 1.27875 0.8125 1.9375 C1.88667752 4.33131686 1.88667752 4.33131686 5 5 C2.69 4.67 0.38 4.34 -2 4 C-1.34 2.68 -0.68 1.36 0 0 Z " fill="#958880" transform="translate(291,291)"/>
<path d="M0 0 C-0.99 0.495 -0.99 0.495 -2 1 C-2 1.66 -2 2.32 -2 3 C-3.65 3.33 -5.3 3.66 -7 4 C-6.625 2.0625 -6.625 2.0625 -6 0 C-3.50907189 -1.24546405 -2.58919267 -0.7767578 0 0 Z " fill="#BCB5A7" transform="translate(287,263)"/>
<path d="M0 0 C1.98 0 3.96 0 6 0 C5.67 0.66 5.34 1.32 5 2 C4.34 2 3.68 2 3 2 C2.67 2.66 2.34 3.32 2 4 C1.01 3.67 0.02 3.34 -1 3 C-0.67 2.01 -0.34 1.02 0 0 Z " fill="#EEE7D8" transform="translate(332,247)"/>
<path d="M0 0 C0.66 0.33 1.32 0.66 2 1 C-2.75 5.875 -2.75 5.875 -5 7 C-3.75023244 3.34683329 -3.32901247 2.21934164 0 0 Z " fill="#7B736A" transform="translate(189,190)"/>
</svg>
